<?xml version="1.0" encoding="utf-8"?>
<!-- Generator: Adobe Illustrator 16.0.4, SVG Export Plug-In . SVG Version: 6.00 Build 0)  -->
<!DOCTYPE svg PUBLIC "-//W3C//DTD SVG 1.1//EN" "http://www.w3.org/Graphics/SVG/1.1/DTD/svg11.dtd">
<svg version="1.1" id="Layer_1" xmlns="http://www.w3.org/2000/svg" xmlns:xlink="http://www.w3.org/1999/xlink" x="0px" y="0px"
	 width="22.792px" height="22.583px" viewBox="0 0 22.792 22.583" enable-background="new 0 0 22.792 22.583" xml:space="preserve">
<g opacity="0.5">
	<path fill="#FFFFFF" d="M11.511,20.659c-5.205,0-9.439-4.234-9.439-9.439S6.306,1.78,11.511,1.78s9.439,4.234,9.439,9.439
		S16.716,20.659,11.511,20.659z"/>
	<path d="M11.511,2.53c4.791,0,8.689,3.898,8.689,8.689c0,4.791-3.898,8.689-8.689,8.689c-4.792,0-8.689-3.898-8.689-8.689
		C2.821,6.428,6.719,2.53,11.511,2.53 M11.511,1.03c-5.627,0-10.189,4.562-10.189,10.189c0,5.628,4.562,10.189,10.189,10.189
		c5.628,0,10.189-4.562,10.189-10.189C21.7,5.592,17.139,1.03,11.511,1.03L11.511,1.03z"/>
</g>
<g opacity="0.5">
	<path d="M9.804,13.052c-0.061-0.451-0.061-0.737-0.061-1.129c0-1.173,0.828-1.865,1.685-2.302c0.677-0.346,0.979-0.646,0.979-1.218
		c0-0.391-0.361-0.692-1.068-0.692c-0.873,0-1.986,0.617-2.543,1.219L7.051,7.245c0.948-1.008,2.513-1.866,4.619-1.866
		c2.422,0,3.655,1.174,3.655,2.769c0,1.384-0.767,2.061-1.715,2.527c-1.414,0.692-1.354,0.948-1.354,2.377H9.804z M9.473,16.723
		v-2.558h3.114v2.558H9.473z"/>
</g>
</svg>
