<?xml version="1.0" encoding="utf-8"?>
<!-- Generator: Adobe Illustrator 16.0.4, SVG Export Plug-In . SVG Version: 6.00 Build 0)  -->
<!DOCTYPE svg PUBLIC "-//W3C//DTD SVG 1.1//EN" "http://www.w3.org/Graphics/SVG/1.1/DTD/svg11.dtd">
<svg version="1.1" id="Layer_1" xmlns="http://www.w3.org/2000/svg" xmlns:xlink="http://www.w3.org/1999/xlink" x="0px" y="0px"
	 width="14px" height="14px" viewBox="0 0 14 14" enable-background="new 0 0 14 14" xml:space="preserve">
<g>
	<defs>
		<rect id="SVGID_1_" x="2.913" width="9.087" height="14"/>
	</defs>
	<clipPath id="SVGID_2_">
		<use xlink:href="#SVGID_1_"  overflow="visible"/>
	</clipPath>
	<path clip-path="url(#SVGID_2_)" fill="#464646" d="M6.383,0.694C6.193,0.477,5.969,0.307,5.706,0.185C5.44,0.061,5.162,0,4.865,0
		C4.336,0,3.879,0.172,3.492,0.515c-0.387,0.344-0.58,0.75-0.58,1.219c0,0.247,0.056,0.494,0.164,0.745
		c0.107,0.249,0.271,0.487,0.488,0.72l1.528,1.757v4.089l-1.528,1.528c-0.212,0.21-0.372,0.448-0.484,0.716
		c-0.111,0.267-0.168,0.547-0.168,0.835c0,0.528,0.189,0.973,0.564,1.335C3.853,13.819,4.315,14,4.865,14
		c0.288,0,0.562-0.061,0.824-0.178c0.261-0.119,0.49-0.292,0.693-0.516L12,6.995L6.383,0.694z"/>
</g>
</svg>
