<?xml version="1.0" encoding="utf-8"?>
<!-- Generator: Adobe Illustrator 17.0.0, SVG Export Plug-In . SVG Version: 6.00 Build 0)  -->
<!DOCTYPE svg PUBLIC "-//W3C//DTD SVG 1.1//EN" "http://www.w3.org/Graphics/SVG/1.1/DTD/svg11.dtd">
<svg version="1.1" id="Layer_1" xmlns="http://www.w3.org/2000/svg" xmlns:xlink="http://www.w3.org/1999/xlink" x="0px" y="0px"
	 width="14px" height="14px" viewBox="0 0 14 14" enable-background="new 0 0 14 14" xml:space="preserve">
<g>
	<g>
		<defs>
			<rect id="SVGID_1_" x="2.913" width="9.087" height="14"/>
		</defs>
		<clipPath id="SVGID_2_">
			<use xlink:href="#SVGID_1_"  overflow="visible"/>
		</clipPath>
		<path clip-path="url(#SVGID_2_)" fill="#464646" d="M8.53,13.306c0.19,0.217,0.414,0.387,0.677,0.509
			C9.473,13.939,9.751,14,10.048,14c0.529,0,0.986-0.172,1.373-0.515c0.387-0.344,0.58-0.75,0.58-1.219
			c0-0.247-0.056-0.494-0.164-0.745c-0.107-0.249-0.271-0.487-0.488-0.72L9.821,9.044V4.955l1.528-1.528
			c0.212-0.21,0.372-0.448,0.484-0.716c0.111-0.267,0.168-0.547,0.168-0.835c0-0.528-0.189-0.973-0.564-1.335
			C11.06,0.181,10.598,0,10.048,0C9.76,0,9.486,0.061,9.224,0.178C8.963,0.297,8.734,0.47,8.531,0.694L2.913,7.005L8.53,13.306z"/>
	</g>
</g>
</svg>
