<?xml version="1.0" encoding="utf-8"?>
<!-- Generator: Adobe Illustrator 16.0.4, SVG Export Plug-In . SVG Version: 6.00 Build 0)  -->
<!DOCTYPE svg PUBLIC "-//W3C//DTD SVG 1.1//EN" "http://www.w3.org/Graphics/SVG/1.1/DTD/svg11.dtd">
<svg version="1.1" xmlns="http://www.w3.org/2000/svg" xmlns:xlink="http://www.w3.org/1999/xlink" x="0px" y="0px"
	 width="125.333px" height="125.333px" viewBox="0 0 125.333 125.333" enable-background="new 0 0 125.333 125.333"
	 xml:space="preserve">
<g id="Layer_2">
	<g>
		<path d="M90.036,76.43l-5.889,5.852c-0.449,0.449-0.982,0.674-1.598,0.674c-0.613,0-1.146-0.225-1.597-0.674L62.115,63.444
			L43.277,82.282c-0.45,0.449-0.983,0.674-1.597,0.674c-0.615,0-1.148-0.225-1.599-0.674l-5.888-5.852
			c-0.45-0.451-0.675-0.988-0.675-1.615c0-0.629,0.225-1.166,0.675-1.613L60.519,46.91c0.448-0.448,0.98-0.673,1.597-0.673
			c0.615,0,1.146,0.225,1.596,0.673l26.325,26.292c0.449,0.447,0.675,0.984,0.675,1.613C90.711,75.442,90.485,75.979,90.036,76.43z"
			/>
	</g>
</g>
<g id="Layer_3">
	<circle fill="none" stroke="#D3D3D3" stroke-width="4" stroke-miterlimit="10" cx="62.667" cy="62.667" r="60.667"/>
</g>
</svg>
