<?xml version="1.0" encoding="utf-8"?>
<!-- Generator: Adobe Illustrator 16.0.0, SVG Export Plug-In . SVG Version: 6.00 Build 0)  -->
<!DOCTYPE svg PUBLIC "-//W3C//DTD SVG 1.1//EN" "http://www.w3.org/Graphics/SVG/1.1/DTD/svg11.dtd">
<svg version="1.1" id="Layer_1" xmlns="http://www.w3.org/2000/svg" xmlns:xlink="http://www.w3.org/1999/xlink" x="0px" y="0px"
	 width="15.375px" height="63.711px" viewBox="0 0 15.375 63.711" enable-background="new 0 0 15.375 63.711" xml:space="preserve">
<g>
	<path d="M12.643,9.668l-0.062,4.418c-0.46,0.247-0.767,0.4-1.197,0.706c-0.337-0.214-0.674-0.429-1.073-0.675V8.409L12.643,9.668z
		 M12.98,5.831c0,0.674-0.613,1.013-2.67,2.301V6.168c0-0.982,0.062-1.534,0.092-1.934h-0.43c0.062,0.43,0.092,0.952,0.092,1.934
		v7.828c-1.289-0.769-2.854-1.566-4.513-1.689c1.566-0.89,3.132-2.086,3.132-3.837V4.634c0-1.228,0.49-1.965,1.78-3.069
		c1.013,1.504,1.412,2.148,2.209,3.499C12.857,5.37,12.98,5.678,12.98,5.831 M8.96,1.043L8.898,0.858
		c-1.29,0-1.996-0.154-2.67-0.276C5.584,0.49,5.031,0.367,4.264,0.367c-2.026,0-3.346,1.044-3.346,2.732
		c0,0.707,0.153,1.105,0.613,1.627l0.184-0.184C1.47,4.234,1.348,3.928,1.348,3.59c0-0.736,0.614-1.38,1.964-1.38
		c1.014,0,1.934,0.184,2.732,0.368c-1.719,1.258-2.763,2.179-2.763,4.85C3.036,7.334,2.698,7.273,2.238,7.273
		c-1.289,0-1.964,0.859-1.964,1.688c0,0.369,0.091,0.769,0.337,1.044l0.215-0.122C0.734,9.698,0.672,9.514,0.672,9.33
		c0-0.553,0.43-0.982,1.228-0.982c0.707,0,1.228,0.307,1.473,0.737c0,1.872-0.367,2.824-1.349,2.824v0.213
		c1.473,0,3.253-1.074,3.253-2.792V5.892C5.277,3.068,6.934,1.749,8.96,1.043 M15.375,8.808l-2.732-1.811
		c1.045-0.645,1.383-0.829,1.75-1.105c0.646-0.46,0.83-0.737,0.83-1.013c0-0.215-0.092-0.613-0.582-1.35
		C14.025,2.607,13.441,1.718,12.214,0c-1.72,1.166-2.671,1.871-4.481,3.284c-0.737,0.583-1.29,1.503-1.29,2.669
		c0,0.399,0.031,2.456,0.031,3.807c0,1.043-0.185,1.596-1.29,2.516c-2.669,0-4.266,1.721-4.266,3.438
		c0,0.737,0.246,1.505,0.798,2.117l0.185-0.184c-0.338-0.369-0.613-0.952-0.613-1.626c0-0.922,0.675-1.935,2.793-1.935
		c2.332,0,4.511,1.597,5.771,2.365c1.811-1.535,2.947-2.18,5.279-2.948V9.605C15.129,9.33,15.223,9.054,15.375,8.808"/>
</g>
<g>
	<path fill="#FFFFFF" d="M4.534,47.875H1.978V41.22H0.274v-2.293h1.704v-1.358c0-1.846,0.527-2.982,2.779-2.982h1.867v2.292H5.447
		c-0.872,0-0.913,0.324-0.913,0.913v1.156h2.11L6.4,41.24H4.555L4.534,47.875z"/>
</g>
<g>
	<path fill="#FFFFFF" d="M15.375,21.449c-0.551,0.24-1.15,0.408-1.773,0.479c0.646-0.383,1.127-0.983,1.366-1.702
		c-0.599,0.359-1.271,0.599-1.966,0.743c-0.575-0.599-1.365-0.959-2.253-0.959c-1.702,0-3.092,1.367-3.092,3.068
		c0,0.24,0.024,0.479,0.072,0.695c-2.589-0.144-4.891-1.342-6.4-3.212c-0.264,0.456-0.431,0.983-0.431,1.534
		c0,1.055,0.551,1.99,1.39,2.541c-0.503-0.024-0.982-0.144-1.414-0.384c0,0.024,0,0.024,0,0.048c0,1.486,1.079,2.708,2.493,2.997
		c-0.264,0.072-0.527,0.095-0.815,0.095c-0.191,0-0.383-0.023-0.575-0.047c0.383,1.222,1.534,2.109,2.9,2.133
		c-1.055,0.815-2.397,1.318-3.859,1.318c-0.24,0-0.503-0.023-0.743-0.048c1.366,0.863,2.996,1.366,4.746,1.366
		c5.706,0,8.821-4.65,8.821-8.701c0-0.144,0-0.264,0-0.383C14.417,22.6,14.943,22.048,15.375,21.449"/>
</g>
<polygon fill="#7A7A7A" points="0.167,49.355 0.167,59.967 2.119,59.967 2.119,63.711 6.568,59.967 13.12,59.967 13.12,49.355 "/>
</svg>
