<?xml version="1.0" encoding="utf-8"?>
<!-- Generator: Adobe Illustrator 16.0.4, SVG Export Plug-In . SVG Version: 6.00 Build 0)  -->
<!DOCTYPE svg PUBLIC "-//W3C//DTD SVG 1.1//EN" "http://www.w3.org/Graphics/SVG/1.1/DTD/svg11.dtd">
<svg version="1.1" id="Layer_1" xmlns:sketch="http://www.bohemiancoding.com/sketch/ns"
	 xmlns="http://www.w3.org/2000/svg" xmlns:xlink="http://www.w3.org/1999/xlink" x="0px" y="0px" width="22px" height="26px"
	 viewBox="0 0 22 26" enable-background="new 0 0 22 26" xml:space="preserve">
<title>bug-black</title>
<desc>Created with Sketch.</desc>
<path sketch:type="MSShapeGroup" d="M17.459,13.617l-0.086,6.224c-0.648,0.349-1.082,0.562-1.689,0.994
	c-0.477-0.301-0.951-0.604-1.516-0.95v-8.041L17.459,13.617z M17.938,8.213c0,0.949-0.864,1.427-3.77,3.242V8.688
	c0-1.385,0.087-2.162,0.129-2.725h-0.605c0.088,0.605,0.132,1.34,0.132,2.725v11.024c-1.82-1.082-4.029-2.206-6.371-2.379
	c2.211-1.253,4.42-2.938,4.42-5.405V6.526c0-1.729,0.692-2.769,2.514-4.323c1.431,2.118,1.994,3.024,3.119,4.928
	C17.764,7.563,17.938,7.998,17.938,8.213L17.938,8.213z M12.262,1.469l-0.086-0.26c-1.82,0-2.818-0.217-3.771-0.39
	C7.494,0.69,6.715,0.517,5.633,0.517c-2.859,0-4.723,1.471-4.723,3.849c0,0.995,0.217,1.556,0.865,2.292l0.26-0.26
	c-0.346-0.433-0.519-0.864-0.519-1.34c0-1.037,0.866-1.945,2.772-1.945c1.431,0,2.729,0.26,3.855,0.52
	c-2.426,1.771-3.9,3.069-3.9,6.83c-0.346-0.13-0.822-0.215-1.473-0.215C0.953,10.247,0,11.456,0,12.623
	c0,0.521,0.129,1.082,0.477,1.47l0.303-0.171c-0.129-0.261-0.217-0.521-0.217-0.778c0-0.778,0.606-1.385,1.733-1.385
	c0.997,0,1.733,0.432,2.079,1.039c0,2.638-0.52,3.978-1.905,3.978v0.302c2.079,0,4.593-1.513,4.593-3.933V8.301
	C7.062,4.321,9.402,2.464,12.262,1.469L12.262,1.469z M21.316,12.405l-3.855-2.549c1.475-0.908,1.951-1.168,2.471-1.557
	c0.91-0.648,1.17-1.037,1.17-1.427c0-0.304-0.131-0.865-0.822-1.901C19.413,3.674,18.59,2.42,16.855,0
	c-2.428,1.644-3.771,2.635-6.324,4.625c-1.041,0.819-1.82,2.118-1.82,3.761c0,0.562,0.043,3.458,0.043,5.361
	c0,1.469-0.262,2.249-1.82,3.543c-3.769,0-6.021,2.424-6.021,4.844c0,1.038,0.347,2.119,1.125,2.98L2.3,24.855
	c-0.477-0.521-0.866-1.34-0.866-2.291c0-1.299,0.953-2.726,3.942-2.726c3.292,0,6.367,2.249,8.146,3.33
	c2.557-2.162,4.16-3.069,7.451-4.151v-5.49C20.971,13.142,21.1,12.753,21.316,12.405L21.316,12.405z"/>
</svg>
