<?xml version="1.0" encoding="UTF-8" standalone="no"?>
<svg width="21px" height="125px" viewBox="0 0 21 125" version="1.1" xmlns="http://www.w3.org/2000/svg" xmlns:xlink="http://www.w3.org/1999/xlink" xmlns:sketch="http://www.bohemiancoding.com/sketch/ns">
    <!-- Generator: Sketch 3.3.3 (12072) - http://www.bohemiancoding.com/sketch -->
    <title>icons_gray</title>
    <desc>Created with Sketch.</desc>
    <defs></defs>
    <g id="Menu-open" stroke="none" stroke-width="1" fill="none" fill-rule="evenodd" sketch:type="MSPage">
        <g id="icons_gray" sketch:type="MSArtboardGroup">
            <g id="Oval-1-+-Line-Copy" sketch:type="MSLayerGroup" transform="translate(2.000000, 2.000000)" stroke="#9B9B9B" stroke-width="3">
                <ellipse id="Oval-1" sketch:type="MSShapeGroup" cx="10.5238095" cy="6.54545455" rx="6.47619048" ry="6.54545455"></ellipse>
                <path d="M6.07142857,11.8636364 L0.404761905,17.5909091" id="Line" stroke-linecap="square" sketch:type="MSShapeGroup"></path>
            </g>
            <g id="Hamburger" sketch:type="MSLayerGroup" transform="translate(3.000000, 73.000000)" stroke="#9B9B9B" stroke-width="3" stroke-linecap="square">
                <path d="M0.539772727,1.5 L14.5385982,1.5" id="Line" sketch:type="MSShapeGroup"></path>
                <path d="M0.539772727,7.5 L14.5385982,7.5" id="Line-Copy-3" sketch:type="MSShapeGroup"></path>
                <path d="M0.539772727,13.5 L14.5385982,13.5" id="Line-Copy-4" sketch:type="MSShapeGroup"></path>
            </g>
            <rect id="Rectangle-73" fill="#9B9B9B" sketch:type="MSShapeGroup" transform="translate(10.000000, 46.500000) rotate(-45.000000) translate(-10.000000, -46.500000) " x="0" y="45" width="20" height="3"></rect>
            <rect id="Rectangle-73-Copy" fill="#9B9B9B" sketch:type="MSShapeGroup" transform="translate(10.000000, 46.500000) rotate(45.000000) translate(-10.000000, -46.500000) " x="0" y="45" width="20" height="3"></rect>
            <path d="M12.5714286,112.642857 C12.5714286,112.051336 12.3621673,111.546319 11.9436384,111.12779 C11.5251095,110.709261 11.0200922,110.5 10.4285714,110.5 C9.83705061,110.5 9.33203334,110.709261 8.91350446,111.12779 C8.49497559,111.546319 8.28571429,112.051336 8.28571429,112.642857 C8.28571429,113.234378 8.49497559,113.739395 8.91350446,114.157924 C9.33203334,114.576453 9.83705061,114.785714 10.4285714,114.785714 C11.0200922,114.785714 11.5251095,114.576453 11.9436384,114.157924 C12.3621673,113.739395 12.5714286,113.234378 12.5714286,112.642857 L12.5714286,112.642857 Z M16.8571429,111.730469 L16.8571429,113.588728 C16.8571429,113.655692 16.8348217,113.719866 16.7901786,113.78125 C16.7455355,113.842634 16.6897325,113.878906 16.6227679,113.890067 L15.0742188,114.124442 C14.9681914,114.425783 14.8593756,114.679686 14.7477679,114.886161 C14.9430813,115.16518 15.2416275,115.550221 15.6434152,116.041295 C15.699219,116.108259 15.7271205,116.178013 15.7271205,116.250558 C15.7271205,116.323103 15.7020092,116.387277 15.6517857,116.44308 C15.5011153,116.649555 15.2248904,116.950891 14.8231027,117.347098 C14.421315,117.743306 14.1590408,117.941406 14.0362723,117.941406 C13.9693077,117.941406 13.8967638,117.916295 13.8186384,117.866071 L12.6635045,116.962054 C12.4179675,117.090402 12.1640638,117.196428 11.9017857,117.280134 C11.8124996,118.039066 11.7315852,118.558034 11.6590402,118.837054 C11.6199775,118.993304 11.5195321,119.071429 11.3577009,119.071429 L9.49944196,119.071429 C9.42131657,119.071429 9.35295788,119.047712 9.29436384,119.000279 C9.2357698,118.952846 9.20368306,118.892858 9.19810268,118.820312 L8.96372768,117.280134 C8.69028881,117.190848 8.43917525,117.087612 8.21037946,116.970424 L7.03013393,117.866071 C6.97433008,117.916295 6.90457631,117.941406 6.82087054,117.941406 C6.74274515,117.941406 6.67299138,117.910715 6.61160714,117.84933 C5.90847863,117.213166 5.44810377,116.744421 5.23046875,116.44308 C5.19140605,116.387277 5.171875,116.323103 5.171875,116.250558 C5.171875,116.183593 5.19419621,116.11942 5.23883929,116.058036 C5.32254506,115.940848 5.46484275,115.755303 5.66573661,115.501395 C5.86663047,115.247488 6.0172986,115.050782 6.11774554,114.911272 C5.96707514,114.632253 5.85267896,114.356028 5.77455357,114.082589 L4.24274554,113.856585 C4.17020053,113.845424 4.11160737,113.810547 4.06696429,113.751953 C4.02232121,113.693359 4,113.627791 4,113.555246 L4,111.696987 C4,111.630022 4.02232121,111.565849 4.06696429,111.504464 C4.11160737,111.44308 4.16462023,111.406808 4.22600446,111.395647 L5.78292411,111.161272 C5.8610495,110.904575 5.96986537,110.647881 6.109375,110.391183 C5.8861596,110.073101 5.58761348,109.68806 5.21372768,109.236049 C5.15792383,109.169084 5.13002232,109.102121 5.13002232,109.035156 C5.13002232,108.979352 5.15513368,108.915179 5.20535714,108.842634 C5.35044715,108.64174 5.62527699,108.341799 6.02985491,107.942801 C6.43443283,107.543804 6.69810206,107.344308 6.82087054,107.344308 C6.89341554,107.344308 6.96595946,107.37221 7.03850446,107.428013 L8.19363839,108.323661 C8.43917533,108.195312 8.69307905,108.089286 8.95535714,108.00558 C9.0446433,107.246648 9.12555767,106.72768 9.19810268,106.448661 C9.23716537,106.29241 9.3376108,106.214286 9.49944196,106.214286 L11.3577009,106.214286 C11.4358263,106.214286 11.504185,106.238002 11.562779,106.285435 C11.6213731,106.332869 11.6534598,106.392857 11.6590402,106.465402 L11.8934152,108.00558 C12.166854,108.094867 12.4179676,108.198102 12.6467634,108.31529 L13.8353795,107.419643 C13.8856029,107.369419 13.9525665,107.344308 14.0362723,107.344308 C14.1088173,107.344308 14.1785711,107.37221 14.2455357,107.428013 C14.9654054,108.092079 15.4257802,108.566405 15.6266741,108.851004 C15.6657368,108.895648 15.6852679,108.957031 15.6852679,109.035156 C15.6852679,109.102121 15.6629467,109.166294 15.6183036,109.227679 C15.5345978,109.344867 15.3923001,109.530412 15.1914062,109.784319 C14.9905124,110.038227 14.8398443,110.234932 14.7393973,110.374442 C14.8844873,110.653461 14.9988835,110.926896 15.0825893,111.194754 L16.6143973,111.429129 C16.6869423,111.44029 16.7455355,111.475167 16.7901786,111.533761 C16.8348217,111.592355 16.8571429,111.657924 16.8571429,111.730469 L16.8571429,111.730469 Z" id="" fill="#9B9B9B" sketch:type="MSShapeGroup"></path>
        </g>
    </g>
</svg>